<?xml version="1.0" standalone="no"?>
<!DOCTYPE svg PUBLIC "-//W3C//DTD SVG 20010904//EN"
 "http://www.w3.org/TR/2001/REC-SVG-20010904/DTD/svg10.dtd">
<svg version="1.0" xmlns="http://www.w3.org/2000/svg"
 width="270.000000pt" height="588.000000pt" viewBox="0 0 270.000000 588.000000"
 preserveAspectRatio="xMidYMid meet">

<g transform="translate(0.000000,588.000000) scale(0.100000,-0.100000)"
fill="#000000" stroke="none">
<path d="M1225 5855 c-166 -52 -292 -186 -331 -351 -46 -197 49 -410 228 -513
307 -175 698 50 700 404 1 212 -123 385 -327 455 -68 23 -205 26 -270 5z"/>
<path d="M950 4790 c-140 -18 -241 -70 -356 -184 -61 -61 -90 -100 -117 -156
-24 -47 -117 -338 -253 -785 -203 -670 -215 -714 -212 -777 3 -56 8 -73 34
-105 43 -55 107 -85 166 -80 58 5 117 42 148 92 13 21 109 328 215 684 l192
646 57 3 c55 3 56 2 51 -20 -4 -13 -149 -518 -324 -1123 l-317 -1100 303 -3
303 -2 2 -869 3 -869 30 -43 c40 -57 103 -88 178 -89 95 0 158 36 200 115 22
40 22 41 25 903 l3 862 69 0 70 0 0 -843 c0 -932 -1 -913 62 -974 44 -43 96
-63 163 -63 90 0 158 44 196 125 18 38 19 83 19 893 l0 852 301 0 301 0 -7 28
c-5 21 -560 1937 -630 2175 l-14 48 61 -3 62 -3 191 -640 c105 -352 201 -659
213 -682 72 -138 261 -132 334 10 39 77 30 117 -201 872 -116 380 -225 717
-241 751 -82 161 -226 284 -400 339 -48 16 -104 18 -435 21 -209 1 -409 -1
-445 -6z"/>
</g>
</svg>
